SplineFontDB: 3.2
FontName: hiContr_Lite_Light_Italic
FullName: hiContr Lite Light Italic
FamilyName: hiContr Lite
Weight: Light
Copyright: Copyright (c) 2022, RandomMaerks (aka Bao Nguyen) (rmforbusiness@gmail.com)
UComments: "2021-12-17: Created with FontForge (http://fontforge.org)"
Version: 1.0
ItalicAngle: 0
UnderlinePosition: -100
UnderlineWidth: 50
Ascent: 800
Descent: 200
InvalidEm: 0
LayerCount: 2
Layer: 0 0 "Back" 1
Layer: 1 0 "Fore" 0
XUID: [1021 301 932173752 19662]
OS2Version: 0
OS2_WeightWidthSlopeOnly: 0
OS2_UseTypoMetrics: 1
CreationTime: 1639720902
ModificationTime: 1642689070
OS2TypoAscent: 0
OS2TypoAOffset: 1
OS2TypoDescent: 0
OS2TypoDOffset: 1
OS2TypoLinegap: 0
OS2WinAscent: 0
OS2WinAOffset: 1
OS2WinDescent: 0
OS2WinDOffset: 1
HheadAscent: 0
HheadAOffset: 1
HheadDescent: 0
HheadDOffset: 1
OS2Vendor: 'PfEd'
MarkAttachClasses: 1
DEI: 91125
Encoding: ISO8859-1
UnicodeInterp: none
NameList: AGL For New Fonts
DisplaySize: -48
AntiAlias: 1
FitToEm: 0
WinInfo: 0 38 14
BeginPrivate: 0
EndPrivate
Grid
-1000 857.399993896 m 0
 2000 857.399993896 l 1024
-1000 700 m 0
 2000 700 l 1024
  Named: "cap-height"
-1000 500 m 0
 2000 500 l 1024
  Named: "x-height"
EndSplineSet
BeginChars: 256 58

StartChar: n
Encoding: 110 110 0
Width: 419
Flags: HMW
LayerCount: 2
Fore
SplineSet
203.974609375 500 m 5
 241.974609375 500 l 5
 228.747070312 395.278320312 l 5
 262.499023438 458.639648438 309.25390625 518 375.797851562 518 c 4
 449.32421875 518 469.53125 449.830078125 440.102539062 340 c 6
 349 0 l 5
 281 0 l 5
 374.782226562 350 l 6
 397.51953125 434.857421875 392.86328125 482 350.151367188 482 c 4
 296.90625 482 251.375 423.122070312 229.102539062 340 c 6
 138 0 l 5
 70 0 l 5
 203.974609375 500 l 5
EndSplineSet
EndChar

StartChar: t
Encoding: 116 116 1
Width: 362
Flags: HMW
LayerCount: 2
Fore
SplineSet
366.166992188 650 m 5
 394.166992188 650 l 1
 353.974609375 500 l 1
 445.974609375 500 l 1
 435.79296875 462 l 1
 343.79296875 462 l 1
 220 0 l 1
 152 0 l 1
 275.79296875 462 l 1
 173.79296875 462 l 1
 178.615234375 480 l 1
 366.166992188 650 l 5
EndSplineSet
EndChar

StartChar: h
Encoding: 104 104 2
Width: 428
Flags: HMW
LayerCount: 2
Fore
SplineSet
257.564453125 700 m 1
 315.564453125 700 l 5
 233.018554688 391.935546875 l 5
 269.426757812 465.463867188 320.381835938 518 375.797851562 518 c 0
 455.232421875 518 478.53125 449.830078125 449.102539062 340 c 2
 358 0 l 1
 290 0 l 1
 386.461914062 360 l 2
 407.4765625 438.428710938 399.270507812 482 350.151367188 482 c 0
 296.90625 482 251.375 423.122070312 229.102539062 340 c 2
 138 0 l 1
 70 0 l 1
 257.564453125 700 l 1
EndSplineSet
EndChar

StartChar: u
Encoding: 117 117 3
Width: 428
Flags: HMW
LayerCount: 2
Fore
SplineSet
358 0 m 1
 320 0 l 1
 334.997070312 113.029296875 l 5
 299.854492188 45.5068359375 252.125976562 -18 186.176757812 -18 c 4
 106.7421875 -18 83.443359375 50.169921875 112.872070312 160 c 6
 203.974609375 500 l 1
 271.974609375 500 l 1
 178.192382812 150 l 6
 155.455078125 65.142578125 162.704101562 18 211.823242188 18 c 4
 265.068359375 18 311.709960938 81.0244140625 335.551757812 170 c 6
 423.974609375 500 l 1
 491.974609375 500 l 1
 358 0 l 1
EndSplineSet
EndChar

StartChar: m
Encoding: 109 109 4
Width: 658
Flags: HMW
LayerCount: 2
Fore
SplineSet
203.974609375 500 m 1
 241.974609375 500 l 1
 228.747070312 395.278320312 l 5
 262.499023438 458.639648438 309.25390625 518 375.797851562 518 c 4
 448.797851562 518 465.114257812 467.553710938 470.6875 414.360351562 c 5
 499.576171875 475.237304688 547.829101562 518 605.797851562 518 c 4
 685.232421875 518 708.53125 449.830078125 679.102539062 340 c 6
 588 0 l 1
 530 0 l 1
 626.461914062 360 l 6
 647.4765625 438.428710938 636.388671875 482 580.151367188 482 c 4
 526.90625 482 483.08984375 429.521484375 459.102539062 340 c 6
 368 0 l 1
 300 0 l 1
 396.461914062 360 l 6
 417.4765625 438.428710938 406.388671875 482 350.151367188 482 c 4
 296.90625 482 251.375 423.122070312 229.102539062 340 c 6
 138 0 l 1
 70 0 l 1
 203.974609375 500 l 1
EndSplineSet
EndChar

StartChar: r
Encoding: 114 114 5
Width: 408
Flags: HMW
LayerCount: 2
Fore
SplineSet
203.974609375 500 m 1
 231.974609375 500 l 1
 231.426757812 405.278320312 l 1
 266.647460938 468.639648438 316.104492188 528 388.477539062 528 c 4
 461.34765625 528 480.184570312 456 449.102539062 340 c 1
 375.744140625 320 l 1
 405.37109375 430.571289062 399.068359375 492 342.831054688 492 c 0
 296.000976562 492 254.0546875 433.122070312 231.782226562 350 c 2
 138 0 l 1
 70 0 l 1
 203.974609375 500 l 1
EndSplineSet
EndChar

StartChar: o
Encoding: 111 111 6
Width: 414
Flags: HMW
LayerCount: 2
Fore
SplineSet
348.137695312 523 m 4
 414.216796875 523 467.524414062 461 433.762695312 335 c 2
 390.890625 175 l 2
 357.129882812 49 270.595703125 -13 204.516601562 -13 c 4
 137.465820312 -13 83.1298828125 49 116.890625 175 c 2
 159.762695312 335 l 2
 193.524414062 461 281.086914062 523 348.137695312 523 c 4
338.491210938 487 m 4
 288.661132812 487 257.7734375 447 238.48046875 375 c 2
 174.172851562 135 l 2
 154.880859375 63 164.33203125 23 214.163085938 23 c 4
 262.569335938 23 292.880859375 63 312.172851562 135 c 2
 376.48046875 375 l 2
 395.7734375 447 386.8984375 487 338.491210938 487 c 4
EndSplineSet
EndChar

StartChar: e
Encoding: 101 101 7
Width: 414
Flags: HMW
LayerCount: 2
Fore
SplineSet
208.2265625 262.090820312 m 1
 351.440429688 281.545898438 l 5
 378.892578125 384 l 6
 395.548828125 446.161132812 387.17578125 487 337.491210938 487 c 0
 288.373046875 487 257.7734375 447 238.48046875 375 c 2
 208.2265625 262.090820312 l 1
202.133789062 239.350585938 m 1
 174.172851562 135 l 2
 154.880859375 63 164.043945312 23 213.163085938 23 c 0
 262.28125 23 298.623046875 84.4287109375 328.25 195 c 5
 390.890625 175 l 5
 357.129882812 49 270.08203125 -13 203.516601562 -13 c 0
 136.952148438 -13 83.1298828125 49 116.890625 175 c 2
 159.762695312 335 l 2
 193.524414062 461 280.572265625 523 347.137695312 523 c 0
 413.702148438 523 467.524414062 461 433.762695312 335 c 6
 416.346679688 270 l 5
 202.133789062 239.350585938 l 1
EndSplineSet
EndChar

StartChar: c
Encoding: 99 99 8
Width: 414
Flags: HMW
LayerCount: 2
Fore
SplineSet
433.762695312 335 m 1
 360.404296875 315 l 1
 390.03125 425.571289062 386.610351562 487 337.491210938 487 c 0
 295.491210938 487 267.7734375 447 248.48046875 375 c 2
 184.172851562 135 l 2
 164.880859375 63 171.163085938 23 213.163085938 23 c 0
 262.28125 23 298.623046875 84.4287109375 328.25 195 c 1
 390.890625 175 l 1
 357.129882812 49 270.08203125 -13 203.516601562 -13 c 0
 136.952148438 -13 83.1298828125 49 116.890625 175 c 2
 159.762695312 335 l 2
 193.524414062 461 280.572265625 523 347.137695312 523 c 0
 413.702148438 523 467.524414062 461 433.762695312 335 c 1
EndSplineSet
EndChar

StartChar: l
Encoding: 108 108 9
Width: 229
Flags: HMW
LayerCount: 2
Fore
SplineSet
148 0 m 2
 97.7626953125 0 83.1298828125 49 95.72265625 96 c 2
 244.166992188 650 l 1
 325.564453125 700 l 1
 158.364257812 76 l 6
 151.828125 51.6083984375 160.411132812 43 177.521484375 43 c 6
 180.521484375 43 l 5
 169 0 l 1
 148 0 l 2
EndSplineSet
EndChar

StartChar: b
Encoding: 98 98 10
Width: 424
Flags: HMW
LayerCount: 2
Fore
SplineSet
368.477539062 528 m 0
 439.306640625 528 486.184570312 456 455.102539062 340 c 2
 412.23046875 180 l 2
 381.1484375 64 295.686523438 -8 224.856445312 -8 c 0
 172.9609375 -8 144.547851562 49.2958984375 154.744140625 123.447265625 c 1
 98 0 l 1
 70 0 l 1
 257.564453125 700 l 1
 305.564453125 700 l 1
 229.127929688 414.734375 l 1
 265.798828125 479.25390625 320.140625 528 368.477539062 528 c 0
  Spiro
    368.477 528 o
    429.274 505.082 o
    462.214 440.213 o
    455.103 340 [
    412.231 180 ]
    365.638 79.7873 o
    297.935 14.9181 o
    224.856 -8 o
    181.384 9.56715 o
    156.843 56.4706 o
    154.745 123.447 v
    98 0 v
    70 0 v
    257.564 700 v
    305.564 700 v
    229.128 414.734 v
    270.766 472.725 o
    319.065 513.001 o
    0 0 z
  EndSpiro
223.744140625 320 m 2
 191.58984375 200 l 2
 161.961914062 89.4287109375 168.265625 28 224.502929688 28 c 0
 287.858398438 28 326.134765625 75.142578125 348.872070312 160 c 2
 402.461914062 360 l 2
 425.19921875 444.857421875 412.186523438 492 348.831054688 492 c 0
 292.59375 492 253.37109375 430.571289062 223.744140625 320 c 2
  Spiro
    223.744 320 [
    191.59 200 ]
    174.462 106.341 o
    184.416 47.9816 o
    224.503 28 o
    279.804 43.3347 o
    320.635 88.1222 o
    348.872 160 [
    402.462 360 ]
    412.744 431.878 o
    395.915 476.665 o
    348.831 492 o
    298.036 472.018 o
    256.808 413.659 o
    0 0 z
  EndSpiro
EndSplineSet
EndChar

StartChar: d
Encoding: 100 100 11
Width: 424
Flags: HMW
LayerCount: 2
Fore
SplineSet
328.477539062 528 m 0
 262.817382812 528 182.184570312 456 151.102539062 340 c 2
 108.23046875 180 l 2
 77.1484375 64 119.196289062 -8 184.856445312 -8 c 0
 241.678710938 -8 304.952148438 49.2958984375 335.41015625 123.447265625 c 1
 326 0 l 1
 354 0 l 1
 541.564453125 700 l 1
 493.564453125 700 l 1
 417.127929688 414.734375 l 1
 413.254882812 479.25390625 381.249023438 528 328.477539062 528 c 0
371.744140625 320 m 2
 339.58984375 200 l 2
 309.961914062 89.4287109375 270.740234375 28 214.502929688 28 c 0
 158.265625 28 148.134765625 75.142578125 170.872070312 160 c 6
 224.461914062 360 l 6
 247.19921875 444.857421875 282.59375 492 338.831054688 492 c 0
 395.068359375 492 401.37109375 430.571289062 371.744140625 320 c 2
EndSplineSet
EndChar

StartChar: p
Encoding: 112 112 12
Width: 424
Flags: HMW
LayerCount: 2
Fore
SplineSet
229.497070312 -28 m 0
 295.157226562 -28 375.790039062 44 406.872070312 160 c 2
 449.744140625 320 l 2
 480.826171875 436 438.778320312 508 373.118164062 508 c 0
 316.295898438 508 253.022460938 450.704101562 222.564453125 376.552734375 c 5
 231.974609375 500 l 1
 203.974609375 500 l 1
 29.8076171875 -150 l 1
 77.8076171875 -150 l 5
 140.846679688 85.265625 l 5
 144.719726562 20.74609375 176.725585938 -28 229.497070312 -28 c 0
186.23046875 180 m 6
 218.384765625 300 l 6
 248.012695312 410.571289062 287.234375 472 343.471679688 472 c 0
 399.708984375 472 409.83984375 424.857421875 387.102539062 340 c 2
 333.512695312 140 l 2
 310.775390625 55.142578125 275.380859375 8 219.143554688 8 c 0
 162.90625 8 156.603515625 69.4287109375 186.23046875 180 c 6
EndSplineSet
EndChar

StartChar: q
Encoding: 113 113 13
Width: 424
Flags: HMW
LayerCount: 2
Fore
SplineSet
179.497070312 -28 m 0
 113.837890625 -28 72.81640625 47.830078125 105.551757812 170 c 2
 148.422851562 330 l 2
 177.8515625 439.830078125 257.458007812 508 323.118164062 508 c 0
 379.940429688 508 412.508789062 450.704101562 403.23046875 376.552734375 c 1
 459.974609375 500 l 1
 487.974609375 500 l 1
 313.807617188 -150 l 1
 265.807617188 -150 l 5
 328.846679688 85.265625 l 1
 290.397460938 20.74609375 232.268554688 -28 179.497070312 -28 c 0
334.23046875 180 m 2
 366.384765625 300 l 2
 396.012695312 410.571289062 389.708984375 472 333.471679688 472 c 0
 277.234375 472 241.83984375 424.857421875 219.102539062 340 c 2
 165.512695312 140 l 2
 142.775390625 55.142578125 152.90625 8 209.143554688 8 c 0
 265.380859375 8 304.603515625 69.4287109375 334.23046875 180 c 2
EndSplineSet
EndChar

StartChar: i
Encoding: 105 105 14
Width: 198
Flags: HMW
LayerCount: 2
Fore
SplineSet
283.678710938 581 m 5
 225.678710938 581 l 5
 244.166992188 650 l 5
 302.166992188 650 l 5
 283.678710938 581 l 5
128 0 m 1
 70 0 l 1
 203.974609375 500 l 1
 261.974609375 500 l 1
 128 0 l 1
EndSplineSet
EndChar

StartChar: a
Encoding: 97 97 15
Width: 434
Flags: HMW
LayerCount: 2
Fore
SplineSet
342.98828125 111.01171875 m 1
 318.776367188 52.677734375 267.01953125 -7.8203125 203.138671875 -7.8203125 c 0
 127.03125 -7.8203125 82.322265625 45.98828125 106.708984375 137 c 0
 136.775390625 249.208984375 260.415039062 292.649414062 384.415039062 292.649414062 c 1
 390.939453125 317 l 2
 418.844726562 421.142578125 408.703125 479 345.34765625 479 c 4
 281.9921875 479 240.844726562 421.142578125 212.939453125 317 c 1
 160.298828125 337 l 1
 194.293945312 463.872070312 283.5703125 515 354.994140625 515 c 4
 426.41796875 515 487.279296875 460.084960938 454.298828125 337 c 2
 364 0 l 1
 330 0 l 1
 342.98828125 111.01171875 l 1
376.982421875 264.909179688 m 1
 247.252929688 264.909179688 178.990234375 190.299804688 165.098632812 138.454101562 c 0
 155.293945312 101.861328125 162.157226562 35 226.377929688 35 c 0
 289.734375 35 330.880859375 92.857421875 358.786132812 197 c 2
 376.982421875 264.909179688 l 1
EndSplineSet
EndChar

StartChar: f
Encoding: 102 102 17
Width: 362
Flags: HMW
LayerCount: 2
Fore
SplineSet
436.013671875 673.400390625 m 4
 391.178710938 673.400390625 357.701171875 588.546875 333.974609375 500 c 1
 445.974609375 500 l 5
 435.79296875 462 l 5
 323.79296875 462 l 1
 200 0 l 1
 132 0 l 1
 255.79296875 462 l 1
 173.79296875 462 l 1
 183.974609375 500 l 1
 265.974609375 500 l 1
 308.657226562 659.291992188 376.454101562 720 431.923828125 720 c 4
 459.923828125 720 472.659179688 713.916992188 484.708007812 708 c 5
 473.721679688 667 l 5
 473.721679688 667 457.517578125 673.400390625 436.013671875 673.400390625 c 4
EndSplineSet
EndChar

StartChar: g
Encoding: 103 103 18
Width: 424
Flags: HMW
LayerCount: 2
Fore
SplineSet
347.092773438 228 m 6
 366.384765625 300 l 6
 396.012695312 410.571289062 389.708984375 472 333.471679688 472 c 0
 277.234375 472 242.796875 428.428710938 221.782226562 350 c 2
 175.6953125 178 l 2
 154.6796875 99.5712890625 165.767578125 56 222.004882812 56 c 0
 278.2421875 56 317.46484375 117.428710938 347.092773438 228 c 6
192.359375 20 m 0
 126.69921875 20 84.6513671875 92 115.733398438 208 c 2
 145.744140625 320 l 2
 176.826171875 436 257.458007812 508 323.118164062 508 c 0
 390.889648438 508 415.188476562 460.704101562 403.23046875 376.552734375 c 5
 469.974609375 500 l 1
 487.974609375 500 l 1
 348.10546875 -22 l 2
 312.735351562 -154 224.833984375 -200 153.41015625 -200 c 0
 86.8447265625 -200 28.7353515625 -154 64.10546875 -22 c 1
 137.463867188 -2 l 1
 106.823242188 -116.352539062 113.9375 -164 163.056640625 -164 c 0
 219.293945312 -164 250.094726562 -134 269.38671875 -62 c 6
 313.669921875 103.265625 l 5
 284.1328125 47 246.126953125 20 192.359375 20 c 0
EndSplineSet
EndChar

StartChar: j
Encoding: 106 106 19
Width: 198
Flags: HMW
LayerCount: 2
Fore
SplineSet
283.678710938 581 m 1
 225.678710938 581 l 1
 244.166992188 650 l 1
 302.166992188 650 l 1
 283.678710938 581 l 1
59.2822265625 -40 m 2
 203.974609375 500 l 1
 261.974609375 500 l 1
 133.359375 20 l 2
 90.6767578125 -139.291992188 18.0634765625 -200 -42.58984375 -200 c 4
 -70.58984375 -200 -83.3251953125 -193.916992188 -95.3740234375 -188 c 5
 -87.068359375 -157 l 5
 -87.068359375 -157 -70.86328125 -163.400390625 -49.359375 -163.400390625 c 4
 11.609375 -163.400390625 42.3974609375 -103.014648438 59.2822265625 -40 c 2
EndSplineSet
EndChar

StartChar: k
Encoding: 107 107 20
Width: 412
Flags: HMW
LayerCount: 2
Fore
SplineSet
138 0 m 1
 70 0 l 1
 257.564453125 700 l 1
 315.564453125 700 l 1
 187.188476562 220.895507812 l 1
 462.974609375 500 l 1
 495.974609375 500 l 1
 285.254882812 278.509765625 l 5
 362 0 l 1
 294 0 l 1
 229.803710938 234.387695312 l 1
 189.549804688 192.387695312 l 1
 138 0 l 1
EndSplineSet
EndChar

StartChar: v
Encoding: 118 118 21
Width: 388
Flags: HMW
LayerCount: 2
Fore
SplineSet
232.038085938 30 m 1
 441.974609375 500 l 5
 471.974609375 500 l 5
 248 0 l 1
 170 0 l 1
 183.974609375 500 l 1
 251.974609375 500 l 1
 232.038085938 30 l 1
EndSplineSet
EndChar

StartChar: w
Encoding: 119 119 22
Width: 648
Flags: HMW
LayerCount: 2
Fore
SplineSet
232.038085938 30 m 1
 423.974609375 500 l 1
 501.974609375 500 l 1
 482.038085938 30 l 5
 703.974609375 500 l 1
 731.974609375 500 l 1
 498 0 l 5
 420 0 l 5
 436.541992188 457.333007812 l 1
 248 0 l 1
 170 0 l 1
 183.974609375 500 l 1
 261.974609375 500 l 1
 232.038085938 30 l 1
EndSplineSet
EndChar

StartChar: y
Encoding: 121 121 23
Width: 388
Flags: HMW
LayerCount: 2
Fore
SplineSet
252.115234375 90 m 1
 440.974609375 500 l 1
 471.974609375 500 l 1
 160.127929688 -160 l 5
 95.1279296875 -160 l 5
 206.077148438 60 l 1
 186.077148438 60 l 1
 183.974609375 500 l 1
 251.974609375 500 l 1
 252.115234375 90 l 1
EndSplineSet
EndChar

StartChar: x
Encoding: 120 120 24
Width: 406
Flags: HMW
LayerCount: 2
Fore
SplineSet
356 0 m 1
 288 0 l 1
 246.805664062 212 l 1
 90 0 l 5
 50 0 l 1
 238.543945312 244.614257812 l 1
 183.974609375 500 l 1
 251.974609375 500 l 1
 291.168945312 288 l 1
 451.974609375 500 l 1
 489.974609375 500 l 1
 299.430664062 255.385742188 l 1
 356 0 l 1
EndSplineSet
EndChar

StartChar: z
Encoding: 122 122 25
Width: 408
Flags: HMW
LayerCount: 2
Fore
SplineSet
178.43359375 442 m 1
 193.974609375 500 l 1
 481.974609375 500 l 1
 465.897460938 440 l 1
 119.491210938 58 l 1
 363.541015625 58 l 1
 348 0 l 1
 60 0 l 1
 78.220703125 68 l 1
 422.34375 442 l 1
 178.43359375 442 l 1
EndSplineSet
EndChar

StartChar: s
Encoding: 115 115 26
Width: 414
Flags: HMW
LayerCount: 2
Fore
SplineSet
230.356445312 382 m 0
 218.541992188 337.907226562 217.759765625 295.904296875 275.9921875 278 c 0
 320.950195312 254 419.4765625 244.362304688 389.369140625 132 c 4
 363.646484375 36 274.13671875 -16 202.712890625 -16 c 0
 131.2890625 -16 72.3251953125 46 106.086914062 172 c 1
 189.446289062 192 l 1
 159.818359375 81.4287109375 163.240234375 20 212.359375 20 c 0
 268.596679688 20 309.25 86.76953125 321.369140625 132 c 4
 333.584960938 177.588867188 324.954101562 219.752929688 286.842773438 231 c 0
 237.01171875 258.495117188 131.37890625 266.388671875 159.676757812 372 c 0
 185.400390625 468 274.91015625 520 346.333984375 520 c 0
 417.756835938 520 479.400390625 468 442.958984375 332 c 5
 359.600585938 312 l 5
 389.227539062 422.571289062 385.805664062 484 336.6875 484 c 0
 280.450195312 484 245.919921875 440.083007812 230.356445312 382 c 0
EndSplineSet
EndChar

StartChar: H
Encoding: 72 72 27
Width: 498
Flags: HMW
LayerCount: 2
Fore
SplineSet
138 0 m 1
 70 0 l 1
 257.564453125 700 l 1
 325.564453125 700 l 1
 244.912109375 399 l 1
 466.912109375 399 l 5
 547.564453125 700 l 5
 615.564453125 700 l 1
 428 0 l 1
 360 0 l 5
 457.265625 363 l 5
 235.265625 363 l 1
 138 0 l 1
EndSplineSet
EndChar

StartChar: N
Encoding: 78 78 28
Width: 498
Flags: HMW
LayerCount: 2
Fore
SplineSet
138 0 m 1
 70 0 l 1
 257.564453125 700 l 1
 365.564453125 700 l 1
 375.18359375 56.6669921875 l 5
 547.564453125 700 l 5
 615.564453125 700 l 1
 428 0 l 1
 330 0 l 5
 316.6328125 666.666992188 l 1
 138 0 l 1
EndSplineSet
EndChar

StartChar: M
Encoding: 77 77 29
Width: 662
Flags: HMW
LayerCount: 2
Fore
SplineSet
338.064453125 26.36328125 m 1
 661.564453125 700 l 5
 779.564453125 700 l 1
 592 0 l 1
 524 0 l 5
 705.3125 676.666992188 l 5
 372 0 l 1
 290 0 l 1
 319.3125 676.666992188 l 1
 138 0 l 1
 70 0 l 1
 257.564453125 700 l 1
 375.564453125 700 l 1
 338.064453125 26.36328125 l 1
EndSplineSet
EndChar

StartChar: U
Encoding: 85 85 30
Width: 484
Flags: HMW
LayerCount: 2
Fore
SplineSet
474.91015625 190 m 2
 433.110351562 34 319.591796875 -18 237.176757812 -18 c 0
 154.76171875 -18 69.1103515625 34 110.91015625 190 c 2
 247.564453125 700 l 1
 315.564453125 700 l 1
 315.564453125 700 219.102539062 340 170.872070312 160 c 0
 146.220703125 68 188.58203125 36 251.646484375 36 c 0
 314.709960938 36 379.579101562 88 398.872070312 160 c 4
 447.102539062 340 543.564453125 700 543.564453125 700 c 5
 611.564453125 700 l 1
 474.91015625 190 l 2
EndSplineSet
EndChar

StartChar: O
Encoding: 79 79 31
Width: 484
Flags: HMW
LayerCount: 2
Fore
SplineSet
434.387695312 718 m 0
 516.802734375 718 602.454101562 666 560.654296875 510 c 2
 474.91015625 190 l 2
 433.110351562 34 319.591796875 -18 237.176757812 -18 c 0
 154.76171875 -18 69.1103515625 34 110.91015625 190 c 2
 196.654296875 510 l 2
 238.454101562 666 351.97265625 718 434.387695312 718 c 0
419.91796875 664 m 0
 356.854492188 664 297.34375 632 272.692382812 540 c 6
 170.872070312 160 l 6
 146.220703125 68 188.58203125 36 251.646484375 36 c 0
 314.709960938 36 379.579101562 88 398.872070312 160 c 2
 500.692382812 540 l 2
 525.34375 632 482.982421875 664 419.91796875 664 c 0
EndSplineSet
EndChar

StartChar: C
Encoding: 67 67 32
Width: 484
Flags: HMW
LayerCount: 2
Fore
SplineSet
474.91015625 190 m 1
 433.110351562 34 319.591796875 -18 237.176757812 -18 c 0
 154.76171875 -18 69.1103515625 34 110.91015625 190 c 2
 196.654296875 510 l 2
 238.454101562 666 351.97265625 718 434.387695312 718 c 0
 516.802734375 718 602.454101562 666 560.654296875 510 c 1
 487.294921875 490 l 5
 521.88671875 619.096679688 482.982421875 664 419.91796875 664 c 0
 356.854492188 664 297.34375 632 272.692382812 540 c 2
 170.872070312 160 l 2
 146.220703125 68 188.58203125 36 251.646484375 36 c 0
 314.709960938 36 385.198242188 108.967773438 412.26953125 210 c 5
 474.91015625 190 l 1
EndSplineSet
EndChar

StartChar: G
Encoding: 71 71 33
Width: 484
Flags: HMW
LayerCount: 2
Fore
SplineSet
359.24609375 348 m 5
 517.24609375 348 l 1
 474.91015625 190 l 2
 433.110351562 34 319.591796875 -18 237.176757812 -18 c 0
 154.76171875 -18 69.1103515625 34 110.91015625 190 c 2
 196.654296875 510 l 2
 238.454101562 666 351.97265625 718 434.387695312 718 c 0
 516.802734375 718 602.454101562 666 560.654296875 510 c 1
 487.294921875 490 l 5
 521.88671875 619.096679688 482.982421875 664 419.91796875 664 c 0
 356.854492188 664 297.34375 632 272.692382812 540 c 2
 170.872070312 160 l 2
 146.220703125 68 188.58203125 36 251.646484375 36 c 0
 314.709960938 36 379.579101562 88 398.872070312 160 c 6
 440.671875 316 l 5
 340.671875 316 l 5
 359.24609375 348 l 5
EndSplineSet
EndChar

StartChar: Q
Encoding: 81 81 34
Width: 484
Flags: HMW
LayerCount: 2
Fore
SplineSet
419.91796875 664 m 0
 356.854492188 664 297.34375 632 272.692382812 540 c 2
 170.872070312 160 l 2
 146.220703125 68 188.58203125 36 251.646484375 36 c 0
 314.709960938 36 379.579101562 88 398.872070312 160 c 2
 500.692382812 540 l 2
 525.34375 632 482.982421875 664 419.91796875 664 c 0
434.387695312 718 m 0
 516.802734375 718 602.454101562 666 560.654296875 510 c 2
 474.91015625 190 l 2
 436.249023438 45.712890625 337.8515625 -9.60546875 259.322265625 -17.0986328125 c 1
 233.62890625 -31.3369140625 214.41796875 -46.955078125 210.119140625 -63 c 4
 202.836914062 -90.1767578125 220.90234375 -100.609375 264.958984375 -100.609375 c 0
 329.669921875 -100.609375 373.368164062 -77 373.368164062 -77 c 1
 341.827148438 -135 l 1
 341.827148438 -135 304.163085938 -147.920898438 256.30078125 -147.920898438 c 0
 200.068359375 -147.920898438 135.092773438 -134.005859375 151.171875 -74 c 0
 157.48046875 -50.4560546875 183.885742188 -29.5888671875 215.092773438 -12.5263671875 c 1
 130 0 76.712890625 62.3740234375 110.91015625 190 c 2
 196.654296875 510 l 2
 238.454101562 666 351.97265625 718 434.387695312 718 c 0
EndSplineSet
EndChar

StartChar: S
Encoding: 83 83 35
Width: 484
Flags: HMW
LayerCount: 2
Fore
SplineSet
202.012695312 530 m 0
 238.454101562 666 351.97265625 718 434.387695312 718 c 0
 516.802734375 718 602.454101562 666 560.654296875 510 c 1
 477.294921875 490 l 1
 511.88671875 619.096679688 477.450195312 664 419.91796875 664 c 0
 356.854492188 664 294.045898438 619.692382812 267.333984375 520 c 0
 243.971679688 432.810546875 281.62890625 386.26171875 341.060546875 371 c 0
 445.065429688 335 505.73046875 305.021484375 469.551757812 170 c 0
 433.110351562 34 319.591796875 -18 237.176757812 -18 c 0
 154.76171875 -18 69.1103515625 34 110.91015625 190 c 1
 194.26953125 210 l 1
 167.198242188 108.967773438 194.114257812 36 251.646484375 36 c 0
 314.709960938 36 377.518554688 80.3076171875 404.23046875 180 c 0
 422.551757812 248.373046875 401.181640625 316.9140625 336.096679688 333 c 0
 233.080078125 367.564453125 167.818359375 402.383789062 202.012695312 530 c 0
EndSplineSet
EndChar

StartChar: A
Encoding: 65 65 36
Width: 498
Flags: HMW
LayerCount: 2
Fore
SplineSet
197.606445312 172 m 1
 118 0 l 1
 50 0 l 1
 397.564453125 700 l 1
 495.564453125 700 l 1
 448 0 l 1
 380 0 l 1
 396.766601562 172 l 5
 197.606445312 172 l 1
209.374023438 203 m 1
 399.463867188 203 l 5
 433.526367188 670 l 1
 209.374023438 203 l 1
EndSplineSet
EndChar

StartChar: V
Encoding: 86 86 37
Width: 498
Flags: HMW
LayerCount: 2
Fore
SplineSet
279.359375 20 m 1
 597.564453125 700 l 5
 635.564453125 700 l 5
 308 0 l 1
 210 0 l 1
 237.564453125 700 l 1
 305.564453125 700 l 1
 279.359375 20 l 1
EndSplineSet
EndChar

StartChar: W
Encoding: 87 87 38
Width: 820
Flags: HMW
LayerCount: 2
Fore
SplineSet
262.038085938 30 m 5
 547.564453125 700 l 5
 626.564453125 700 l 5
 614.038085938 30 l 5
 925.564453125 700 l 5
 957.564453125 700 l 5
 632 0 l 5
 562 0 l 5
 569.938476562 671.538085938 l 5
 288 0 l 5
 210 0 l 5
 237.564453125 700 l 5
 305.564453125 700 l 5
 262.038085938 30 l 5
EndSplineSet
EndChar

StartChar: L
Encoding: 76 76 39
Width: 438
Flags: HMW
LayerCount: 2
Fore
SplineSet
154.077148438 60 m 1
 394.077148438 60 l 5
 378 0 l 5
 70 0 l 1
 257.564453125 700 l 1
 325.564453125 700 l 1
 154.077148438 60 l 1
EndSplineSet
EndChar

StartChar: D
Encoding: 68 68 40
Width: 484
Flags: HMW
LayerCount: 2
Fore
SplineSet
152.469726562 54 m 5
 256.469726562 54 l 2
 319.533203125 54 384.40234375 106 403.6953125 178 c 2
 495.869140625 522 l 2
 520.520507812 614 478.159179688 646 415.094726562 646 c 2
 311.094726562 646 l 5
 152.469726562 54 l 5
70 0 m 1
 257.564453125 700 l 1
 429.564453125 700 l 2
 511.979492188 700 597.630859375 648 555.831054688 492 c 2
 479.733398438 208 l 2
 437.93359375 52 324.415039062 0 242 0 c 2
 70 0 l 1
EndSplineSet
EndChar

StartChar: I
Encoding: 73 73 41
Width: 198
Flags: HMW
LayerCount: 2
Fore
SplineSet
128 0 m 1
 70 0 l 1
 257.564453125 700 l 1
 315.564453125 700 l 1
 128 0 l 1
EndSplineSet
EndChar

StartChar: B
Encoding: 66 66 42
Width: 484
Flags: HMW
LayerCount: 2
Fore
SplineSet
152.469726562 54 m 5
 236.469726562 54 l 6
 324.217773438 54 382.841796875 108.83984375 413.18359375 222.078125 c 0
 432.385742188 293.7421875 413.517578125 387 325.696289062 387 c 2
 241.696289062 387 l 1
 152.469726562 54 l 5
248.126953125 411 m 1
 312.126953125 411 l 2
 386.547851562 411 431.60546875 440.111328125 449.548828125 507.078125 c 0
 467.65234375 574.642578125 449.577148438 646 375.094726562 646 c 2
 311.094726562 646 l 1
 248.126953125 411 l 1
419.748046875 407.6484375 m 1
 479.696289062 387 514.083984375 336.19921875 489.379882812 244 c 2
 477.58984375 200 l 2
 435.790039062 44 324.415039062 0 242 0 c 2
 70 0 l 1
 257.564453125 700 l 1
 389.564453125 700 l 2
 506.224609375 700 547.497070312 635.813476562 519.337890625 530.719726562 c 0
 497.44140625 449 459.217773438 430 419.748046875 407.6484375 c 1
EndSplineSet
EndChar

StartChar: P
Encoding: 80 80 43
Width: 484
Flags: HMW
LayerCount: 2
Fore
SplineSet
257.564453125 700 m 1
 429.564453125 700 l 2
 511.979492188 700 598.970703125 653 561.190429688 512 c 2
 549.400390625 468 l 6
 514.197265625 336.622070312 432.560546875 300 352.384765625 300 c 2
 218.384765625 300 l 1
 138 0 l 1
 70 0 l 1
 257.564453125 700 l 1
227.495117188 334 m 1
 311.495117188 334 l 2
 399.243164062 334 457.453125 387.295898438 484.994140625 490.078125 c 0
 504.350585938 562.318359375 482.916015625 646 395.094726562 646 c 2
 311.094726562 646 l 1
 227.495117188 334 l 1
EndSplineSet
EndChar

StartChar: R
Encoding: 82 82 44
Width: 484
Flags: HMW
LayerCount: 2
Fore
SplineSet
232.854492188 354 m 1
 336.854492188 354 l 2
 411.274414062 354 464.354492188 413.05078125 480.170898438 472.078125 c 0
 504.467773438 562.756835938 487.702148438 639 413.219726562 639 c 2
 309.219726562 639 l 1
 232.854492188 354 l 1
257.564453125 700 m 1
 429.564453125 700 l 2
 511.979492188 700 600.87890625 660.12109375 561.190429688 512 c 2
 557.438476562 498 l 2
 529.430664062 393.47265625 446.630859375 334.505859375 380.750976562 334.505859375 c 1
 424 0 l 1
 349 0 l 5
 315.270507812 320 l 5
 223.744140625 320 l 1
 138 0 l 1
 70 0 l 1
 257.564453125 700 l 1
EndSplineSet
EndChar

StartChar: T
Encoding: 84 84 45
Width: 468
Flags: HMW
LayerCount: 2
Fore
SplineSet
375.487304688 640 m 1
 231.487304688 640 l 1
 247.564453125 700 l 1
 595.564453125 700 l 1
 579.487304688 640 l 1
 433.487304688 640 l 5
 262 0 l 5
 204 0 l 1
 375.487304688 640 l 1
EndSplineSet
EndChar

StartChar: J
Encoding: 74 74 46
Width: 293
Flags: HMW
LayerCount: 2
Fore
SplineSet
195.192382812 150 m 2
 342.564453125 700 l 1
 410.564453125 700 l 1
 276.58984375 200 l 2
 233.907226562 40.7080078125 156.478515625 -20 90.640625 -20 c 4
 62.640625 -20 49.9052734375 -13.9169921875 37.8564453125 -8 c 5
 48.8427734375 33 l 5
 48.8427734375 33 65.046875 26.599609375 86.55078125 26.599609375 c 4
 147.51953125 26.599609375 178.307617188 86.9853515625 195.192382812 150 c 2
EndSplineSet
EndChar

StartChar: E
Encoding: 69 69 47
Width: 438
Flags: HMW
LayerCount: 2
Fore
SplineSet
241.428710938 386 m 1
 489.428710938 386 l 1
 477.102539062 340 l 1
 229.102539062 340 l 1
 153.80859375 59 l 5
 423.80859375 59 l 5
 408 0 l 1
 70 0 l 1
 257.564453125 700 l 1
 595.564453125 700 l 1
 579.487304688 640 l 1
 309.487304688 640 l 1
 241.428710938 386 l 1
EndSplineSet
EndChar

StartChar: F
Encoding: 70 70 48
Width: 438
Flags: HMW
LayerCount: 2
Fore
SplineSet
309.487304688 640 m 5
 241.428710938 386 l 1
 489.428710938 386 l 1
 477.102539062 340 l 1
 229.102539062 340 l 1
 138 0 l 1
 70 0 l 1
 257.564453125 700 l 1
 595.564453125 700 l 1
 579.487304688 640 l 5
 309.487304688 640 l 5
EndSplineSet
EndChar

StartChar: Y
Encoding: 89 89 49
Width: 498
Flags: HMW
LayerCount: 2
Fore
SplineSet
344.384765625 300 m 1
 587.564453125 700 l 5
 635.564453125 700 l 5
 356.791015625 253 l 1
 289 0 l 1
 229 0 l 1
 296.791015625 253 l 1
 237.564453125 700 l 1
 305.564453125 700 l 1
 344.384765625 300 l 1
EndSplineSet
EndChar

StartChar: K
Encoding: 75 75 50
Width: 482
Flags: HMW
LayerCount: 2
Fore
SplineSet
138 0 m 1
 70 0 l 1
 257.564453125 700 l 1
 325.564453125 700 l 1
 223.983398438 320.895507812 l 1
 571.564453125 700 l 1
 619.564453125 700 l 1
 328.297851562 364.509765625 l 1
 422 0 l 1
 338 0 l 5
 261.311523438 318.387695312 l 1
 210.986328125 272.387695312 l 1
 138 0 l 1
EndSplineSet
EndChar

StartChar: X
Encoding: 88 88 51
Width: 514
Flags: HMW
LayerCount: 2
Fore
SplineSet
464 0 m 1
 392 0 l 5
 330.581054688 297 l 1
 98 0 l 1
 50 0 l 1
 319.391601562 333.614257812 l 1
 237.564453125 700 l 1
 309.564453125 700 l 1
 374.303710938 393 l 1
 612.564453125 700 l 1
 651.564453125 700 l 1
 385.493164062 356.385742188 l 1
 464 0 l 1
EndSplineSet
EndChar

StartChar: Z
Encoding: 90 90 52
Width: 478
Flags: HMW
LayerCount: 2
Fore
SplineSet
232.0234375 642 m 1
 247.564453125 700 l 1
 605.564453125 700 l 5
 589.487304688 640 l 5
 119.491210938 58 l 1
 433.541015625 58 l 5
 418 0 l 5
 60 0 l 1
 78.220703125 68 l 1
 545.93359375 642 l 5
 232.0234375 642 l 1
EndSplineSet
EndChar

StartChar: period
Encoding: 46 46 53
Width: 198
Flags: HMW
LayerCount: 2
Fore
SplineSet
133 0 m 5
 65 0 l 5
 85.3642578125 76 l 5
 153.364257812 76 l 5
 133 0 l 5
EndSplineSet
EndChar

StartChar: comma
Encoding: 44 44 54
Width: 198
Flags: HMW
LayerCount: 2
Fore
SplineSet
65.3486328125 -92 m 5
 48.564453125 -80 l 5
 108.724609375 0 l 5
 65 0 l 5
 85.3642578125 76 l 5
 153.364257812 76 l 5
 133 0 l 5
 65.3486328125 -92 l 5
EndSplineSet
EndChar

StartChar: question
Encoding: 63 63 55
Width: 484
Flags: HMW
LayerCount: 2
Fore
SplineSet
263 0 m 1
 195 0 l 1
 215.364257812 76 l 1
 283.364257812 76 l 1
 263 0 l 1
336.189453125 297.969726562 m 1
 306.1875 186 l 1
 247.1875 186 l 1
 283.092773438 320 l 1
 356.282226562 320 446.705078125 375.834960938 479.70703125 499 c 0
 510.12890625 612.538085938 484.03125 663 419.650390625 663 c 0
 355.26953125 663 302.926757812 615.516601562 266.34765625 479 c 1
 203.70703125 499 l 1
 245.506835938 655 349.697265625 707 431.440429688 707 c 0
 513.182617188 707 589.506835938 655 547.70703125 499 c 4
 515.55078125 378.994140625 421.130859375 316 336.189453125 297.969726562 c 1
EndSplineSet
EndChar

StartChar: colon
Encoding: 58 58 56
Width: 198
Flags: HMW
LayerCount: 2
Fore
SplineSet
241.51953125 405 m 5
 173.51953125 405 l 5
 193.883789062 481 l 5
 261.883789062 481 l 5
 241.51953125 405 l 5
163.545898438 114 m 5
 95.5458984375 114 l 5
 115.91015625 190 l 5
 183.91015625 190 l 5
 163.545898438 114 l 5
EndSplineSet
EndChar

StartChar: hyphen
Encoding: 45 45 57
Width: 347
Flags: HMW
LayerCount: 2
Fore
SplineSet
114.490234375 278 m 1
 381.490234375 278 l 1
 367.288085938 225 l 5
 100.288085938 225 l 5
 114.490234375 278 l 1
EndSplineSet
EndChar
